<?xml version="1.0" encoding="UTF-8"?>
<svg width="363px" height="116px" viewBox="0 0 363 116" version="1.1" xmlns="http://www.w3.org/2000/svg" xmlns:xlink="http://www.w3.org/1999/xlink">
    <!-- Generator: Sketch 60.1 (88133) - https://sketch.com -->
    <title>HYD_013_22 Logo_RZ_RGB_Neg</title>
    <desc>Created with Sketch.</desc>
    <g id="Page-1" stroke="none" stroke-width="1" fill="none" fill-rule="evenodd">
        <g id="HYD_013_22-Logo_RZ_RGB_Neg" fill-rule="nonzero">
            <g id="Ebene_1" transform="translate(172.000000, 35.000000)" fill="#FFFFFF">
                <g id="Group">
                    <polygon id="Path" points="0.3 0.4 11.5 0.4 11.5 24.1 36.5 24.1 36.5 0.4 47.8 0.4 47.8 57.8 36.5 57.8 36.5 34.1 11.5 34.1 11.5 57.8 0.3 57.8"></polygon>
                    <path d="M98.5,17.3 L84.4,57.9 L80.5,68.2 C79.5,70.7 78.4,72.4 77.1,73.3 C75.8,74.2 73.6,74.6 70.4,74.6 L59.6,74.6 L59.6,65.5 L68.4,65.5 C70.7,65.5 72.2,64.4 72.9,62.3 L74.5,57.9 L69.6,57.9 L55.5,17.3 L66.3,17.3 L76.6,49.6 L77.4,49.6 L87.7,17.3 L98.5,17.3 L98.5,17.3 Z" id="Path"></path>
                    <path d="M119.5,58.7 C114.3,58.7 110,56.8 106.7,53 C103.4,49.2 101.7,44 101.7,37.6 C101.7,31.2 103.3,26 106.7,22.2 C110,18.4 114.3,16.5 119.6,16.5 C123.4,16.5 126.7,17.6 129.5,19.6 L130.6,19.6 L130.6,0.4 L140.7,0.4 L140.7,57.8 L132.3,57.8 L130.8,54.7 L130,54.7 C126.9,57.4 123.4,58.7 119.5,58.7 L119.5,58.7 Z M128.8,46.5 C130.6,44.3 131.4,41.3 131.4,37.5 C131.4,33.6 130.5,30.6 128.8,28.4 C127,26.2 124.6,25.1 121.5,25.1 C118.4,25.1 116,26.2 114.2,28.4 C112.4,30.6 111.6,33.6 111.6,37.5 C111.6,41.3 112.5,44.3 114.2,46.5 C116,48.7 118.4,49.8 121.5,49.8 C124.6,49.8 127,48.7 128.8,46.5 Z" id="Shape"></path>
                    <path d="M190.3,37.5 C190.3,38.8 190.3,39.7 190.2,40.4 L159.4,40.4 C159.8,43.7 161,46.1 162.8,47.9 C164.6,49.7 166.9,50.5 169.8,50.5 C173.7,50.5 176.5,48.9 178.2,45.8 L189.1,45.8 C187.8,49.9 185.5,53.1 182.2,55.4 C178.8,57.7 174.7,58.8 169.9,58.8 C163.6,58.8 158.6,56.9 154.9,53.1 C151.2,49.3 149.4,44.1 149.4,37.6 C149.4,31.3 151.2,26.3 154.9,22.4 C158.6,18.5 163.5,16.5 169.8,16.5 C176.1,16.5 181.1,18.4 184.8,22.4 C188.5,26.1 190.3,31.2 190.3,37.5 L190.3,37.5 Z M169.8,24.8 C164.4,24.8 161,27.5 159.7,32.8 L179.7,32.8 C178.5,27.5 175.2,24.8 169.8,24.8 L169.8,24.8 Z" id="Shape"></path>
                </g>
            </g>
            <g id="Ebene_2" fill="#EB3C46">
                <polygon id="Path" points="22.9 0.9 45.9 0.9 45.9 46.9 103.3 46.9 126.3 69.9 126.3 115.8 103.3 115.8 103.3 69.9 45.9 69.9 22.9 46.9"></polygon>
                <polygon id="Path" points="22.9 46.9 0 46.9 0 58.4 22.9 81.3"></polygon>
                <polygon id="Path" points="22.9 115.8 45.9 115.8 45.9 104.3 22.9 81.3"></polygon>
                <polygon id="Path" points="103.3 0.9 103.3 18.2 126.3 41.1 126.3 0.9"></polygon>
            </g>
        </g>
    </g>
</svg>